<svg aria-hidden="true" style="position: absolute; width: 0; height: 0; overflow: hidden;" version="1.1" xmlns="http://www.w3.org/2000/svg" xmlns:xlink="http://www.w3.org/1999/xlink">
<defs>
<symbol id="icon-close" viewBox="0 0 32 32">
<path stroke-linejoin="round" stroke-linecap="round" stroke-miterlimit="4" stroke-width="2.2857" d="M29.823 2.395l-27.429 27.429"></path>
<path stroke-linejoin="round" stroke-linecap="round" stroke-miterlimit="4" stroke-width="2.2857" d="M2.395 2.395l27.429 27.429"></path>
</symbol>
<symbol id="icon-facebook" viewBox="0 0 32 32">
<path d="M13.912 11.099v2.203h-1.613v2.693h1.613v8.005h3.315v-8.005h2.224c0 0 0.21-1.291 0.31-2.704h-2.522v-1.84c0-0.277 0.362-0.646 0.72-0.646h1.805v-2.805h-2.456c-3.478 0-3.397 2.696-3.397 3.099z"></path>
<path d="M6.4 3.2c-0.849 0-1.663 0.337-2.263 0.937s-0.937 1.414-0.937 2.263v19.2c0 0.849 0.337 1.663 0.937 2.263s1.414 0.937 2.263 0.937h19.2c0.849 0 1.663-0.337 2.263-0.937s0.937-1.414 0.937-2.263v-19.2c0-0.849-0.337-1.663-0.937-2.263s-1.414-0.937-2.263-0.937h-19.2zM6.4 0h19.2c1.697 0 3.325 0.674 4.525 1.875s1.875 2.828 1.875 4.526v19.2c0 1.697-0.674 3.325-1.875 4.525s-2.828 1.875-4.525 1.875h-19.2c-1.697 0-3.325-0.674-4.526-1.875s-1.875-2.828-1.875-4.525v-19.2c0-1.697 0.674-3.325 1.875-4.526s2.828-1.875 4.526-1.875v0z"></path>
</symbol>
<symbol id="icon-instagram" viewBox="0 0 32 32">
<path d="M9.404 0.096c1.706-0.079 2.25-0.096 6.596-0.096s4.89 0.019 6.595 0.096c1.705 0.077 2.868 0.349 3.887 0.743 1.066 0.403 2.033 1.033 2.833 1.847 0.815 0.799 1.443 1.764 1.844 2.832 0.396 1.018 0.666 2.182 0.745 3.884 0.079 1.709 0.096 2.253 0.096 6.598 0 4.346-0.019 4.89-0.096 6.596-0.077 1.702-0.349 2.865-0.745 3.884-0.401 1.068-1.031 2.035-1.844 2.835-0.8 0.815-1.767 1.443-2.833 1.844-1.018 0.396-2.182 0.666-3.884 0.745-1.708 0.079-2.252 0.096-6.598 0.096s-4.89-0.019-6.596-0.096c-1.702-0.077-2.865-0.349-3.884-0.745-1.068-0.401-2.035-1.031-2.835-1.844-0.814-0.799-1.444-1.766-1.846-2.833-0.394-1.018-0.665-2.182-0.743-3.884-0.079-1.709-0.096-2.253-0.096-6.598 0-4.346 0.019-4.89 0.096-6.595s0.349-2.868 0.743-3.887c0.403-1.068 1.033-2.034 1.847-2.833 0.799-0.814 1.765-1.444 2.832-1.846 1.018-0.394 2.182-0.665 3.884-0.743h0.001zM22.465 2.976c-1.687-0.077-2.193-0.093-6.465-0.093s-4.778 0.016-6.465 0.093c-1.561 0.071-2.407 0.332-2.972 0.551-0.746 0.291-1.28 0.636-1.84 1.196-0.531 0.516-0.939 1.145-1.196 1.84-0.22 0.564-0.48 1.411-0.551 2.972-0.077 1.687-0.093 2.193-0.093 6.465s0.016 4.778 0.093 6.465c0.071 1.561 0.332 2.407 0.551 2.972 0.256 0.694 0.665 1.324 1.196 1.84 0.516 0.531 1.146 0.94 1.84 1.196 0.564 0.22 1.411 0.48 2.972 0.551 1.687 0.077 2.192 0.093 6.465 0.093s4.778-0.016 6.465-0.093c1.561-0.071 2.407-0.332 2.972-0.551 0.746-0.291 1.28-0.636 1.84-1.196 0.531-0.516 0.94-1.146 1.196-1.84 0.22-0.564 0.48-1.411 0.551-2.972 0.077-1.687 0.093-2.193 0.093-6.465s-0.016-4.778-0.093-6.465c-0.071-1.561-0.332-2.407-0.551-2.972-0.291-0.746-0.636-1.28-1.196-1.84-0.517-0.531-1.145-0.939-1.84-1.196-0.564-0.22-1.411-0.48-2.972-0.551zM13.956 20.932c1.141 0.475 2.412 0.539 3.595 0.181s2.206-1.115 2.893-2.143c0.687-1.028 0.996-2.262 0.873-3.492s-0.668-2.38-1.543-3.252c-0.558-0.558-1.233-0.985-1.976-1.251s-1.536-0.363-2.321-0.286-1.544 0.328-2.221 0.734c-0.677 0.406-1.255 0.957-1.694 1.613s-0.726 1.401-0.842 2.182c-0.116 0.78-0.057 1.577 0.172 2.332s0.622 1.45 1.152 2.035c0.53 0.585 1.183 1.045 1.912 1.347zM10.185 10.185c0.764-0.764 1.67-1.369 2.668-1.783s2.067-0.626 3.147-0.626c1.080 0 2.149 0.213 3.147 0.626s1.904 1.019 2.668 1.783c0.764 0.764 1.369 1.67 1.783 2.668s0.626 2.067 0.626 3.147-0.213 2.149-0.626 3.147c-0.413 0.998-1.019 1.904-1.783 2.668-1.542 1.542-3.634 2.409-5.815 2.409s-4.273-0.866-5.815-2.409-2.409-3.634-2.409-5.815c0-2.181 0.866-4.273 2.409-5.815zM26.048 9.001c0.189-0.179 0.341-0.393 0.446-0.631s0.161-0.495 0.165-0.755c0.004-0.26-0.045-0.518-0.142-0.759s-0.243-0.46-0.427-0.644c-0.184-0.184-0.403-0.329-0.644-0.427s-0.499-0.146-0.759-0.142c-0.26 0.004-0.517 0.060-0.755 0.165s-0.453 0.256-0.631 0.446c-0.347 0.368-0.537 0.857-0.53 1.363s0.212 0.989 0.569 1.347c0.358 0.358 0.841 0.562 1.347 0.569s0.995-0.183 1.363-0.53z"></path>
</symbol>
<symbol id="icon-location" viewBox="0 0 32 32">
<path d="M16 0.657c-5.303 0-9.6 4.28-9.6 9.581 0 9.166 9.6 21.12 9.6 21.12s9.6-11.956 9.6-21.12c0-5.299-4.297-9.581-9.6-9.581zM16 15.539c-1.375 0-2.693-0.546-3.666-1.518s-1.518-2.291-1.518-3.666c0-1.375 0.546-2.693 1.518-3.666s2.291-1.518 3.666-1.518c1.375 0 2.693 0.546 3.666 1.518s1.518 2.291 1.518 3.666c0 1.375-0.546 2.693-1.518 3.666s-2.291 1.518-3.666 1.518z"></path>
</symbol>
<symbol id="icon-phone" viewBox="0 0 32 32">
<path d="M22 0c0.955 0 1.87 0.379 2.546 1.054s1.054 1.591 1.054 2.546v24.8c0 0.955-0.379 1.87-1.054 2.546s-1.591 1.054-2.546 1.054h-12c-0.955 0-1.87-0.379-2.546-1.054s-1.054-1.591-1.054-2.546v-24.8c0-0.955 0.379-1.87 1.054-2.546s1.591-1.054 2.546-1.054h12zM22 2.4h-12c-0.318 0-0.623 0.126-0.849 0.351s-0.351 0.53-0.351 0.849v24.8c0 0.662 0.538 1.2 1.2 1.2h12c0.318 0 0.624-0.126 0.848-0.352s0.352-0.53 0.352-0.848v-24.8c0-0.318-0.126-0.623-0.352-0.849s-0.53-0.351-0.848-0.351zM17.998 24.8c0.318-0 0.624 0.126 0.849 0.35s0.352 0.53 0.353 0.848-0.126 0.624-0.35 0.849c-0.225 0.225-0.53 0.352-0.848 0.353l-4 0.006c-0.318 0-0.624-0.126-0.849-0.35s-0.352-0.53-0.353-0.848 0.126-0.624 0.35-0.849c0.225-0.225 0.53-0.352 0.848-0.353l4-0.006z"></path>
</symbol>
<symbol id="icon-telegram" viewBox="0 0 32 32">
<path d="M29.684 2.395c-0.385 0.028-0.763 0.118-1.12 0.268h-0.005c-0.342 0.136-1.968 0.82-4.44 1.856l-8.858 3.731c-6.356 2.676-12.605 5.311-12.605 5.311l0.074-0.029c0 0-0.431 0.142-0.881 0.45-0.278 0.177-0.517 0.408-0.703 0.68-0.221 0.324-0.398 0.82-0.332 1.332 0.108 0.866 0.67 1.386 1.073 1.673 0.408 0.29 0.797 0.426 0.797 0.426h0.010l5.86 1.974c0.263 0.844 1.786 5.85 2.152 7.003 0.216 0.689 0.426 1.12 0.689 1.448 0.127 0.168 0.276 0.308 0.455 0.421 0.093 0.054 0.192 0.097 0.295 0.127l-0.060-0.014c0.018 0.005 0.032 0.019 0.046 0.024 0.048 0.013 0.080 0.018 0.142 0.028 0.928 0.281 1.673-0.295 1.673-0.295l0.042-0.034 3.46-3.15 5.798 4.448 0.132 0.056c1.208 0.53 2.432 0.235 3.079-0.286 0.652-0.524 0.905-1.195 0.905-1.195l0.042-0.108 4.481-22.955c0.127-0.566 0.16-1.097 0.019-1.612-0.145-0.521-0.479-0.969-0.937-1.256-0.385-0.234-0.831-0.347-1.28-0.324zM29.563 4.855c-0.005 0.076 0.010 0.067-0.024 0.212v0.013l-4.439 22.716c-0.019 0.032-0.052 0.103-0.14 0.174-0.094 0.074-0.168 0.121-0.558-0.034l-7.092-5.437-4.284 3.905 0.9-5.748 11.587-10.8c0.478-0.444 0.318-0.538 0.318-0.538 0.034-0.545-0.721-0.16-0.721-0.16l-14.611 9.052-0.005-0.024-7.021-2.366c0.012-0.004 0.024-0.009 0.036-0.014l0.038-0.019 0.037-0.013c0 0 6.253-2.635 12.61-5.311 3.182-1.34 6.389-2.69 8.855-3.732 1.463-0.616 2.927-1.228 4.392-1.836 0.098-0.038 0.052-0.038 0.122-0.038v-0.001z"></path>
</symbol>
<symbol id="icon-arrow-left" viewBox="0 0 56 32">
<path d="M56.471 14.098h-49.241l11.329-11.409-2.67-2.689-15.888 16 15.888 16 2.67-2.689-11.329-11.409h49.242v-3.803z"></path>
</symbol>
<symbol id="icon-arrow-right" viewBox="0 0 56 32">
<path d="M40.583 0l-2.67 2.689 11.329 11.409h-49.241v3.803h49.241l-11.329 11.409 2.67 2.689 15.888-16-15.888-16z"></path>
</symbol>
</defs>
</svg>
